<?xml version="1.0" encoding="utf-8"?>
<!-- Generator: Adobe Illustrator 18.1.1, SVG Export Plug-In . SVG Version: 6.00 Build 0)  -->
<!DOCTYPE svg PUBLIC "-//W3C//DTD SVG 1.1//EN" "http://www.w3.org/Graphics/SVG/1.1/DTD/svg11.dtd">
<svg version="1.1" id="Ebene_1" xmlns="http://www.w3.org/2000/svg" xmlns:xlink="http://www.w3.org/1999/xlink" x="0px" y="0px"
	 viewBox="0 0 257.1 257.1" enable-background="new 0 0 257.1 257.1" xml:space="preserve">
<g>
	<g>
		<path fill="#14B2C8" d="M1,257C1,173,1,89,0.9,5c0-3.4,0.7-4.1,4.1-4.1C87.7,1,170.3,1,253,0.9c3.4,0,4.1,0.7,4.1,4.1
			c-0.1,82.7-0.1,165.3,0,248c0,3.4-0.7,4.1-4.1,4.1C169,257,85,257,1,257z"/>
		<path fill="#12B0C6" d="M223,92c12.6,16.8,14.8,35.7,12.4,55.9c-0.9,7.7-1,15.5-2.3,23.3c-2,11.6-5.8,22.5-10.6,33.1
			c-1,2.1-3,3.2-5,3.8c-5.5,1.8-11.2,3.4-17,3.7c-14.6,0.8-29.1-0.4-43.7-0.9c-9.5-0.4-19-1.7-28.7-1.4c-11.5,0.4-23.1,0.8-34.8-0.2
			c-7.4-0.6-14.8,0.2-22.3-0.1c-9.7-0.4-18.6-2.7-27.4-6.5c-12.9-5.6-17.9-13.8-15.9-28c0.3-2.3,0.2-4.7-0.1-7
			c-1-9.3-0.2-18.5,2.3-27.5c2.6-9.5,5-19,6.8-28.6c1.2-6.4,5.1-12,5.2-18.7c0.4-0.4,0.9-0.8,1.3-1.2c5.6-3.9,11.9-1.9,17.9-2
			c1.7,0,2.4,2.1,3.3,3.5c0,9.9,2.2,19.1,9.7,26.3c1.2,1.2,2.1,2.7,1.1,4.5c-1,1.8-2.7,1.6-4.4,1.5c-5.9-0.3-6.4,0.4-4,5.9
			c3.2,7.1,8.5,12.2,15.5,15.5c2.1,1,5.2,1.6,3,5.2c-2.2,1.3-5.1,0.8-6.8,3.1c0.6,5.5,5.2,7.8,8.9,10.7c2.9,2.3,6.5,3.3,10.2,3.9
			c1.9,0.3,3.6,0.8,4.1,3c0.4,1.9-0.7,3.2-2.1,4.2c-10.8,7.5-22.9,11.2-36,11.1c3.5,0.3,6.6,2.3,9.9,3.4
			c30.7,10.1,59.3,6.6,84.5-14.4c19.7-16.3,29-38.1,30.3-63.4c0.3-5,1.1-9.1,5.6-11.9c1.8-1.1,3.3-2.7,4.5-4.6c-1.8,0-3.3,0.7-5,0.8
			c-1.6,0.1-3-0.3-3.8-1.8c-0.8-1.5-0.3-3,1-4c4.1-3.5,6.6-8.3,9.8-12.5c7.6-4.2,17-0.9,20,7C221.3,88.4,222.2,90.2,223,92z"/>
		<path fill="#14B1C7" d="M223,92c-0.5-0.7-1-1.3-1.4-2c-1.8-2.8-1.6-7.5-5.4-8.3c-4.9-1-10-1.8-15-0.7c-4,3.3-8.7,5.2-13.6,6.9
			c-3.5,1.2-6.3,0.7-9.2-1.6c-4.3-3.4-9-6.1-14.6-6.9c-2.6-0.3-5.3-0.3-7.9,0.1c-1.9,0.3-3.8,0.9-5.7,1.2c-5.2-2-10.5-0.1-15.7-0.2
			c-25.4-0.1-50.8,0-76.2,0c-2,0-4,0-6,0.1c-3.9,0.3-6.2,2.2-6.6,6.1C45.2,89,44.7,91.2,43,93c-0.3,0-0.7,0-1,0
			c-0.2-7.6,1.1-15.3-3.1-22.4c-1.1-1.9,0.1-3.1,2.1-3.6c12.4-4.2,25.2-3.5,38-3.5c39,0.1,78,0.2,116.9-0.1
			c8.7-0.1,16.4-0.6,18.9,10c0.1,0.6,0.8,1.1,1.1,1.7C219.7,80.1,221.4,86,223,92z"/>
		<path fill="#16B3C9" d="M187,40c0.6,0.8,1.2,1.6,1.9,2.3c2.7,2.9,1,4-1.9,4.5c-1.1,0.2-2.3,0.1-3.5,0.1c-28.3,0-56.6,0-85,0
			c-0.5,0-1,0-1.5,0c-1.7-0.2-4.2,0.5-4.7-1.8c-0.4-1.8,1.8-2.5,3.1-3.5c6.9-4.9,14.6-8.7,21.9-12.9c3-1.8,6.3-2.3,9.6-1.4
			c10.4,2.8,21.2,1.6,31.8,2.4c7.8,0.6,15.6,1.1,23.1,3.2C188.1,32.9,189.6,35,187,40z"/>
		<path fill="#14B2C7" d="M216,75c-1.7-1.1-3.5-2.4-4-4.3c-1.3-5.3-4.8-5.8-9.4-5.8C154.8,65,107,65.1,59.2,64.9
			c-6.2,0-11.9,3.6-18.2,2.1c7.7-3.2,15.5-5.2,24.1-5.1c42.8,0.3,85.6,0.1,128.4,0.1c4,0,8,0.2,11.9-0.7c3.4-0.8,5.7,0.3,6.8,4
			C213.3,68.5,214.7,71.7,216,75z"/>
		<path fill="#14B2C7" d="M187,40c0.6-3.9-2.7-5.1-5-7c5.6-3.9,15-2.1,18.3,3.6c3.5,6.2,4,13.5,7.4,20c-4.9-2.8-9.3-5.9-12.5-10.4
			C193.1,43.3,190.4,41.1,187,40z"/>
		<path fill="#FEFEFE" d="M151,77.9c1.8,0.3,3.4-0.5,5-0.9c2.7-0.8,5.3-0.7,8,0c5.8,0.9,11,3.4,15.3,7.1c2.7,2.3,4.9,2.3,8.1,1.5
			c4.7-1.2,8.6-5,13.8-4.6c-1.6,6.1-5.9,10.2-11.1,14.7c5.7,0,10.1-1.9,15.4-3.7c-3,5.6-7,9.4-11.4,12.8c-2.4,1.9-3.1,3.8-3.1,6.7
			c0,36.6-24.7,77.3-69.4,85.8c-22.2,4.2-43.2,1-64.2-11.2c8.8-0.2,16.3-0.6,23.5-2.8c7.2-2.2,13.8-5.3,20.4-10.5
			c-13.2-1.9-22.6-7.7-27.4-19.6c-0.1-2.3,1.7-1.4,2.8-1.6c2.8-0.3,5.6,0.5,8.3-0.5c-3.7-2.9-8.4-3.9-11.9-7.1
			c-6.9-6.2-10.6-13.8-11-23.3c4.3,1.1,8,3.2,13.2,2.9c-9.4-7.4-13.2-16.9-13.3-28c0.6-1.6,0.5-3.2,0.1-4.9
			c-0.8-3.2-0.1-6.1,2.8-7.9c3.2-1.9,5.3,0.7,7.2,2.7c12.5,13.3,27.7,21.7,45.5,25.4c1.5,0.3,2.9,0.6,4.4,0.7c2.9,0.1,4.4-1,4.5-4
			c0.2-3.5,0.9-6.9,1.9-10.3C131.8,85.9,138.8,78.9,151,77.9z"/>
		<path fill="#13B0C7" d="M151,77.9c-14.1,4.8-20.9,15.1-21.7,29.6c-0.4,7.4-0.2,7.6-7.6,6.5c-19.7-2.8-36.4-11.6-50.3-25.9
			c-1.6-1.7-3.1-3.4-4.7-5.2c-3.2,4-3.2,8.5-4.6,12.5c-0.2-1.8,0.1-4-2.8-3.7c-5.4,0.6-11-0.5-16.3,1.2c0-2.5,0-5,0-7.5
			c0.1-6.5,1.1-7.5,7.7-7.5c30,0,60-0.1,90,0.1C144.1,78.1,147.5,76.8,151,77.9z"/>
		<path fill="#ACE2E9" d="M85,151c-3.4,2.5-7.7-0.1-11.1,2.1c-1.5-2.2,0.2-1.9,1.5-2C78.6,151.1,81.8,151,85,151z"/>
		<path fill="#14B2C8" d="M164,76.9c-2.7,0-5.3,0-8,0C158.7,75.6,161.3,75.6,164,76.9z"/>
	</g>
</g>
</svg>
